<mxfile host="app.diagrams.net" modified="2024-04-09T17:54:28.986Z" agent="Mozilla/5.0 (Windows NT 10.0; Win64; x64) AppleWebKit/537.36 (KHTML, like Gecko) Chrome/120.0.0.0 YaBrowser/24.1.0.0 Safari/537.36" version="24.2.3" etag="47uaWu-g4WLkgtq9Ood7" type="github">
  <diagram name="Страница — 1" id="E3MNu92kmUo3OdfEtUif">
    <mxGraphModel>
      <root>
        <mxCell id="0" />
        <mxCell id="1" parent="0" />
      </root>
    </mxGraphModel>
  </diagram>
</mxfile>
